<svg width="218" height="98" viewBox="0 0 218 98" fill="none" xmlns="http://www.w3.org/2000/svg">
<g clip-path="url(#clip0_48_19533)">
<path d="M12.4143 86.6514C13.2156 86.6514 13.887 86.803 14.4501 87.1062C15.0132 87.4094 15.468 87.81 15.8253 88.3082C16.1827 88.8171 16.4426 89.4019 16.5942 90.0624C16.7566 90.7338 16.8324 91.416 16.8324 92.1415V97.8266H14.7208V92.0982C14.7208 91.73 14.6883 91.351 14.6342 90.9504C14.58 90.5497 14.4609 90.1815 14.2985 89.8458C14.136 89.5102 13.8978 89.2394 13.5946 89.0229C13.2914 88.8063 12.9016 88.7088 12.4143 88.7088C11.992 88.7088 11.6238 88.7955 11.2989 88.9579C10.9741 89.1312 10.7033 89.3477 10.4868 89.6401C10.2594 89.9216 10.0861 90.2573 9.96698 90.6363C9.84786 91.0153 9.77206 91.4268 9.76123 91.8708L9.73958 91.8275V92.3148C9.73958 92.4772 9.73958 92.6721 9.73958 92.8995C9.73958 93.127 9.75041 93.3977 9.75041 93.7009V97.8483H7.61715V92.1199C7.61715 91.7517 7.58466 91.3727 7.53052 90.972C7.47637 90.5714 7.35726 90.2032 7.184 89.8675C7.01074 89.5318 6.7725 89.2611 6.4693 89.0445C6.1661 88.8279 5.77626 88.7305 5.28897 88.7305C4.85582 88.7305 4.47681 88.8171 4.14112 89.0012C3.81626 89.1853 3.53471 89.4344 3.30731 89.7376C3.07991 90.0408 2.90665 90.4089 2.79836 90.8096C2.69007 91.2103 2.6251 91.6542 2.6251 92.109V97.8591H0.535156V86.8788H2.6251L2.64676 87.9941C2.74422 87.8642 2.88499 87.7234 3.04742 87.561C3.20985 87.4094 3.40477 87.2686 3.62134 87.1278C3.83792 86.9979 4.08698 86.8896 4.3577 86.803C4.62842 86.7163 4.94245 86.673 5.27814 86.673C5.87372 86.673 6.40433 86.7921 6.86996 87.0304C7.3356 87.2686 7.73626 87.5393 8.07195 87.8317C8.45096 88.1782 8.78665 88.5681 9.07902 88.9904C9.16565 88.7955 9.2956 88.5681 9.47969 88.2973C9.66378 88.0266 9.89118 87.7667 10.1619 87.5285C10.4326 87.2903 10.7575 87.0845 11.1365 86.9113C11.5047 86.738 11.927 86.6622 12.4143 86.6622V86.6514Z" fill="#F08318"/>
<path d="M26.3212 86.8463H28.4761V97.8266H26.3212L26.2995 96.7546C26.202 96.8845 26.0721 97.0253 25.9097 97.1661C25.7472 97.3068 25.5631 97.4368 25.3574 97.5451C25.1517 97.6642 24.9026 97.7616 24.6319 97.8374C24.3612 97.9132 24.0471 97.9566 23.6898 97.9566C22.9101 97.9566 22.2279 97.8158 21.6648 97.5126C21.1017 97.2094 20.6361 96.8195 20.2787 96.3322C19.9214 95.8341 19.6615 95.2602 19.4991 94.5996C19.3366 93.9391 19.25 93.2569 19.25 92.5314V86.8463H21.3833V92.5747C21.3833 92.9537 21.4157 93.3435 21.4699 93.7442C21.524 94.1448 21.6431 94.513 21.8164 94.8379C21.9897 95.1627 22.2279 95.4335 22.5203 95.65C22.8127 95.8666 23.2025 95.9641 23.6898 95.9641C24.1229 95.9641 24.5128 95.8774 24.8485 95.6934C25.1841 95.5093 25.4549 95.2602 25.6714 94.957C25.888 94.6538 26.0504 94.2964 26.1587 93.8849C26.267 93.4735 26.3212 93.0403 26.3212 92.5855V86.8354V86.8463Z" fill="#F08318"/>
<path d="M33.6407 97.8267H31.5508V86.8464H33.6407L33.6624 87.9184C33.879 87.6585 34.2146 87.377 34.6586 87.0846C35.1026 86.7922 35.644 86.6406 36.2829 86.6406C37.0843 86.6406 37.7665 86.7922 38.3296 87.0954C38.8927 87.3986 39.3583 87.7993 39.7156 88.2974C40.073 88.7955 40.3329 89.3911 40.4845 90.0517C40.6469 90.7231 40.7227 91.4053 40.7227 92.1308V97.8159H38.6111V92.0875C38.6111 91.7193 38.5786 91.3403 38.5245 90.9396C38.4703 90.539 38.3512 90.1708 38.1888 89.8351C38.0264 89.4994 37.7881 89.2287 37.4849 89.0121C37.1817 88.7955 36.7811 88.6981 36.2829 88.6981C35.8498 88.6981 35.4708 88.7847 35.1351 88.9688C34.8102 89.1529 34.5287 89.4019 34.3121 89.7051C34.0847 90.0084 33.9223 90.3765 33.814 90.7772C33.7057 91.1779 33.6516 91.6218 33.6516 92.0766V97.8267H33.6407Z" fill="#F08318"/>
<path d="M48.3224 86.8679C48.7448 86.8679 49.1563 86.9437 49.5677 87.0953C49.9792 87.2469 50.3474 87.4094 50.6831 87.5934C51.0621 87.7992 51.4195 88.0374 51.7552 88.2973V81.5835H53.8884V97.8483H51.7552V96.4189C51.636 96.5813 51.4844 96.7545 51.2895 96.9386C51.0946 97.1227 50.8564 97.296 50.5748 97.4584C50.2933 97.6208 49.9684 97.7508 49.5894 97.8591C49.2212 97.9565 48.7989 98.0107 48.3333 98.0107C47.5536 98.0107 46.8389 97.8591 46.2 97.545C45.5611 97.2418 45.0197 96.8195 44.5649 96.2997C44.1101 95.78 43.7744 95.1844 43.5253 94.5022C43.2871 93.82 43.168 93.1053 43.168 92.3581C43.168 91.6109 43.2871 90.9504 43.5253 90.279C43.7636 89.6184 44.1101 89.0228 44.5649 88.5247C45.0197 88.0266 45.5611 87.6151 46.2 87.3119C46.8389 87.0087 47.5536 86.8571 48.3333 86.8571L48.3224 86.8679ZM48.3224 95.9965C48.7448 95.9965 49.1563 95.9207 49.5786 95.7691C49.9901 95.6175 50.3582 95.3901 50.6831 95.0869C50.9971 94.7837 51.257 94.4047 51.4519 93.9499C51.6469 93.4843 51.7443 92.9537 51.7443 92.3364C51.7443 91.7625 51.6469 91.2644 51.4519 90.8312C51.257 90.3981 50.9971 90.0407 50.6939 89.7592C50.3799 89.4776 50.0226 89.2611 49.6002 89.1095C49.1887 88.9687 48.7664 88.8929 48.3224 88.8929C47.8135 88.8929 47.3695 89.0012 46.9905 89.2069C46.6115 89.4235 46.2975 89.6942 46.0484 90.0191C45.7994 90.3439 45.6153 90.7229 45.4853 91.1236C45.3554 91.5351 45.2904 91.9249 45.2904 92.3039C45.2904 92.6829 45.3445 93.1161 45.4637 93.5601C45.5828 94.0041 45.756 94.3939 46.0051 94.7512C46.2542 95.1086 46.5682 95.401 46.958 95.6392C47.3479 95.8774 47.7918 95.9857 48.3224 95.9857V95.9965Z" fill="#F08318"/>
<path d="M61.7735 97.9134C61.0372 97.9134 60.3333 97.7727 59.6619 97.4911C58.9906 97.2096 58.4058 96.8306 57.9077 96.3324C57.4096 95.8343 57.0089 95.2496 56.7057 94.5674C56.4025 93.8852 56.2617 93.1488 56.2617 92.3583C56.2617 91.6111 56.4133 90.8964 56.7057 90.2142C56.9981 89.532 57.3987 88.9364 57.9077 88.4275C58.4166 87.9185 58.9906 87.507 59.6619 87.2038C60.3333 86.9006 61.0372 86.749 61.7735 86.749C62.5099 86.749 63.2246 86.9006 63.896 87.2038C64.5674 87.507 65.1629 87.9077 65.6611 88.4275C66.1592 88.9364 66.5598 89.532 66.863 90.2142C67.1663 90.8964 67.307 91.6111 67.307 92.3583C67.307 93.1488 67.1554 93.8852 66.863 94.5674C66.5707 95.2496 66.17 95.8343 65.6611 96.3324C65.1629 96.8306 64.5674 97.2204 63.896 97.4911C63.2246 97.7727 62.5099 97.9134 61.7735 97.9134ZM61.7735 88.8065C61.2646 88.8065 60.799 88.9039 60.3658 89.0989C59.9327 89.2938 59.5753 89.5645 59.2613 89.8894C58.9472 90.2142 58.7198 90.5932 58.5466 91.0155C58.3733 91.4379 58.2867 91.8818 58.2867 92.3583C58.2867 92.8564 58.3733 93.3221 58.5466 93.7552C58.7198 94.1884 58.9581 94.5565 59.2613 94.8706C59.5645 95.1846 59.9327 95.4337 60.3658 95.6069C60.799 95.7802 61.2646 95.8668 61.7735 95.8668C62.2825 95.8668 62.7481 95.7802 63.1813 95.6069C63.6144 95.4337 63.9718 95.1846 64.2858 94.8706C64.589 94.5565 64.8272 94.1884 65.0005 93.7552C65.1738 93.3221 65.2604 92.8564 65.2604 92.3583C65.2604 91.8927 65.1738 91.4487 65.0113 91.0155C64.8489 90.5932 64.6107 90.2142 64.3075 89.8894C64.0043 89.5645 63.6361 89.2938 63.2029 89.0989C62.7698 88.9039 62.2933 88.8065 61.7735 88.8065Z" fill="#F08318"/>
<path d="M80.2014 86.8679C80.6237 86.8679 81.0352 86.9437 81.4467 87.0953C81.8582 87.2469 82.2263 87.4094 82.562 87.5934C82.941 87.7992 83.2984 88.0374 83.6341 88.2973V81.5835H85.7673V97.8483H83.6341V96.4189C83.5149 96.5813 83.3633 96.7545 83.1684 96.9386C82.9735 97.1227 82.7353 97.296 82.4537 97.4584C82.1722 97.6208 81.8473 97.7508 81.4683 97.8591C81.1001 97.9565 80.6778 98.0107 80.2122 98.0107C79.4325 98.0107 78.7178 97.8591 78.0789 97.545C77.44 97.2418 76.8986 96.8195 76.4438 96.2997C75.989 95.78 75.6533 95.1844 75.4042 94.5022C75.166 93.82 75.0469 93.1053 75.0469 92.3581C75.0469 91.6109 75.166 90.9504 75.4042 90.279C75.6425 89.6184 75.989 89.0228 76.4438 88.5247C76.8986 88.0266 77.44 87.6151 78.0789 87.3119C78.7178 87.0087 79.4325 86.8571 80.2122 86.8571L80.2014 86.8679ZM80.2014 95.9965C80.6237 95.9965 81.0352 95.9207 81.4575 95.7691C81.869 95.6175 82.2372 95.3901 82.562 95.0869C82.876 94.7837 83.1359 94.4047 83.3309 93.9499C83.5258 93.4843 83.6232 92.9537 83.6232 92.3364C83.6232 91.7625 83.5258 91.2644 83.3309 90.8312C83.1359 90.3981 82.8761 90.0407 82.5728 89.7592C82.2588 89.4776 81.9015 89.2611 81.4791 89.1095C81.0677 88.9687 80.6453 88.8929 80.2014 88.8929C79.6924 88.8929 79.2484 89.0012 78.8694 89.2069C78.4904 89.4235 78.1764 89.6942 77.9273 90.0191C77.6783 90.3439 77.4942 90.7229 77.3642 91.1236C77.2343 91.5351 77.1693 91.9249 77.1693 92.3039C77.1693 92.6829 77.2235 93.1161 77.3426 93.5601C77.4617 94.0041 77.6349 94.3939 77.884 94.7512C78.1331 95.1086 78.4471 95.401 78.8369 95.6392C79.2268 95.8774 79.6707 95.9857 80.2014 95.9857V95.9965Z" fill="#F08318"/>
<path d="M98.1782 95.6284C97.5718 96.3647 96.8896 96.9278 96.1424 97.3285C95.3952 97.7291 94.5723 97.9349 93.6735 97.9349C92.7747 97.9349 92.06 97.7941 91.4211 97.5126C90.7714 97.231 90.2299 96.852 89.7968 96.3647C89.3636 95.8774 89.0279 95.2927 88.8005 94.6213C88.5731 93.9499 88.4648 93.2136 88.4648 92.4231C88.4648 91.6759 88.5731 90.972 88.8005 90.2898C89.0279 89.6184 89.3528 89.0228 89.7968 88.5139C90.2299 88.0049 90.7714 87.5935 91.4211 87.2903C92.0708 86.987 92.818 86.8354 93.6735 86.8354C94.4531 86.8354 95.1678 86.9979 95.8067 87.3119C96.4456 87.6259 96.9871 88.0591 97.431 88.6114C97.875 89.1636 98.2215 89.8133 98.4706 90.5605C98.7197 91.3185 98.8388 92.1307 98.8388 93.0078H90.5331C90.5656 93.8958 90.8363 94.6321 91.3669 95.2061C91.8976 95.78 92.6664 96.0615 93.6626 96.0615C94.1608 96.0615 94.6047 95.9641 94.9946 95.78C95.3844 95.5959 95.7201 95.3793 96.0016 95.1411C96.3157 94.8812 96.6081 94.5672 96.8463 94.2206L98.1782 95.6284ZM93.641 88.7521C93.2187 88.7521 92.8397 88.8171 92.4823 88.947C92.1358 89.077 91.8326 89.2611 91.5619 89.4885C91.2911 89.7159 91.0854 89.9758 90.9338 90.2682C90.7714 90.5605 90.6631 90.8637 90.6089 91.1669H96.5323C96.3265 90.5064 95.9692 89.9433 95.4494 89.4668C94.9296 88.9904 94.3232 88.7521 93.6302 88.7521H93.641Z" fill="#F08318"/>
<path d="M118.903 86.6514C119.704 86.6514 120.375 86.803 120.938 87.1062C121.501 87.4094 121.956 87.81 122.314 88.3082C122.671 88.8171 122.931 89.4019 123.082 90.0624C123.245 90.7338 123.321 91.416 123.321 92.1415V97.8266H121.209V92.0982C121.209 91.73 121.177 91.351 121.122 90.9504C121.068 90.5497 120.949 90.1815 120.787 89.8458C120.624 89.5102 120.386 89.2394 120.083 89.0229C119.78 88.8063 119.39 88.7088 118.903 88.7088C118.48 88.7088 118.112 88.7955 117.787 88.9579C117.462 89.1312 117.192 89.3477 116.975 89.6401C116.748 89.9216 116.574 90.2573 116.455 90.6363C116.336 91.0153 116.26 91.4268 116.25 91.8708L116.228 91.8275V92.3148C116.228 92.4772 116.228 92.6721 116.228 92.8995C116.228 93.127 116.239 93.3977 116.239 93.7009V97.8483H114.105V92.1199C114.105 91.7517 114.073 91.3727 114.019 90.972C113.965 90.5714 113.846 90.2032 113.672 89.8675C113.499 89.5318 113.261 89.2611 112.958 89.0445C112.654 88.8279 112.265 88.7305 111.777 88.7305C111.344 88.7305 110.965 88.8171 110.629 89.0012C110.305 89.1853 110.023 89.4344 109.796 89.7376C109.568 90.0408 109.395 90.4089 109.287 90.8096C109.178 91.2103 109.113 91.6542 109.113 92.109V97.8591H107.023V86.8788H109.113L109.135 87.9941C109.233 87.8642 109.373 87.7234 109.536 87.561C109.698 87.4094 109.893 87.2686 110.11 87.1278C110.326 86.9979 110.575 86.8896 110.846 86.803C111.117 86.7163 111.431 86.673 111.766 86.673C112.362 86.673 112.893 86.7921 113.358 87.0304C113.824 87.2686 114.225 87.5393 114.56 87.8317C114.939 88.1782 115.275 88.5681 115.567 88.9904C115.654 88.7955 115.784 88.5681 115.968 88.2973C116.152 88.0266 116.379 87.7667 116.65 87.5285C116.921 87.2903 117.246 87.0845 117.625 86.9113C117.993 86.738 118.415 86.6622 118.903 86.6622V86.6514Z" fill="#F08318"/>
<path d="M134.939 93.982C134.939 94.361 134.95 94.6967 134.972 94.9783C134.993 95.2598 135.026 95.4764 135.069 95.6063C135.145 95.7254 135.231 95.8337 135.34 95.9204C135.448 96.0178 135.502 96.0611 135.502 96.0395H135.719C135.719 96.1153 135.719 96.2452 135.697 96.4293C135.686 96.6242 135.665 96.8191 135.654 97.0249C135.643 97.2739 135.621 97.5338 135.61 97.8154C134.917 97.8154 134.365 97.6854 133.975 97.4364C133.586 97.1765 133.304 96.7866 133.152 96.2452C133.012 96.4401 132.827 96.6242 132.611 96.83C132.394 97.0249 132.134 97.1981 131.842 97.3606C131.539 97.5122 131.203 97.6421 130.813 97.7287C130.424 97.8262 130.001 97.8695 129.536 97.8695C129.016 97.8695 128.507 97.8154 128.02 97.6963C127.532 97.5771 127.099 97.3931 126.709 97.1332C126.319 96.8733 126.016 96.5484 125.789 96.1478C125.561 95.7471 125.453 95.2598 125.453 94.6859C125.453 93.9279 125.616 93.2781 125.94 92.7475C126.265 92.2169 126.688 91.773 127.197 91.4373C127.706 91.1016 128.279 90.8633 128.918 90.7117C129.557 90.571 130.185 90.4952 130.792 90.4952C131.138 90.4952 131.485 90.506 131.831 90.5276C132.167 90.5493 132.535 90.5926 132.914 90.6684C132.871 90.3327 132.773 90.0404 132.633 89.8021C132.492 89.5639 132.308 89.3581 132.102 89.2065C131.896 89.0549 131.658 88.9358 131.398 88.8708C131.138 88.795 130.867 88.7626 130.597 88.7626C130.099 88.7626 129.579 88.8925 129.016 89.1741C128.453 89.4448 127.922 89.8346 127.413 90.3436L126.828 89.5747L126.677 89.3581C126.677 89.3581 126.655 89.3473 126.655 89.3581C126.655 89.369 126.655 89.3581 126.623 89.3473C126.59 89.3365 126.558 89.2607 126.504 89.1632C126.449 89.0658 126.363 88.8817 126.244 88.6326C126.937 88.0154 127.673 87.5606 128.442 87.2682C129.211 86.9758 129.958 86.8242 130.662 86.8242C131.463 86.8242 132.145 86.9325 132.698 87.1383C133.261 87.3548 133.715 87.6472 134.062 88.0154C134.408 88.3836 134.668 88.8384 134.82 89.369C134.982 89.8996 135.058 90.4735 135.058 91.1016C135.058 91.3398 135.058 91.5672 135.058 91.7838C135.058 92.0004 135.037 92.2278 135.026 92.466C135.015 92.7042 134.993 92.9533 134.982 93.2132C134.972 93.4731 134.961 93.7329 134.961 93.982H134.939ZM129.536 96.007C130.207 96.007 130.759 95.8879 131.203 95.6496C131.647 95.4114 131.994 95.119 132.243 94.7833C132.492 94.4476 132.665 94.1011 132.763 93.7546C132.86 93.4081 132.914 93.1157 132.914 92.8775V92.5743C132.665 92.531 132.384 92.4985 132.059 92.466C131.734 92.4335 131.431 92.4227 131.149 92.4227C130.759 92.4227 130.348 92.4552 129.925 92.5201C129.503 92.5851 129.124 92.7042 128.778 92.8558C128.431 93.0183 128.149 93.2348 127.922 93.5055C127.695 93.7763 127.586 94.1119 127.586 94.5018C127.586 94.6317 127.608 94.7833 127.651 94.9566C127.695 95.1299 127.781 95.2923 127.922 95.4547C128.063 95.6171 128.258 95.7471 128.507 95.8662C128.756 95.9745 129.102 96.0286 129.525 96.0286L129.536 96.007Z" fill="#F08318"/>
<path d="M139.76 89.7484C139.76 89.9109 139.825 90.0625 139.944 90.2141C140.064 90.3657 140.226 90.4956 140.421 90.6364C140.616 90.7772 140.843 90.8963 141.103 91.0154C141.363 91.1345 141.623 91.2645 141.883 91.3944C142.273 91.5677 142.673 91.7626 143.085 91.9683C143.496 92.1741 143.864 92.4123 144.2 92.6939C144.536 92.9754 144.807 93.2894 145.023 93.636C145.24 93.9825 145.348 94.394 145.348 94.8704C145.348 95.78 145.001 96.5164 144.308 97.1011C143.615 97.6751 142.662 97.9674 141.439 97.9674C140.811 97.9674 140.248 97.8916 139.75 97.7509C139.251 97.6101 138.818 97.4368 138.461 97.2527C138.104 97.0687 137.833 96.9062 137.649 96.7438C137.465 96.5922 137.367 96.5056 137.367 96.4947L138.147 94.9787C138.32 95.0653 138.537 95.1628 138.797 95.2711C139.056 95.3794 139.338 95.4877 139.63 95.5851C139.923 95.6826 140.237 95.78 140.54 95.845C140.854 95.9208 141.146 95.9533 141.428 95.9533C141.894 95.9533 142.273 95.8667 142.576 95.6826C142.879 95.4985 143.02 95.2278 143.02 94.8596C143.02 94.5672 142.857 94.3182 142.522 94.1232C142.186 93.9283 141.785 93.7118 141.32 93.4952C141.309 93.4843 141.287 93.4735 141.276 93.4735C141.244 93.4735 141.233 93.4735 141.233 93.4519L140.843 93.257V93.2786C140.464 93.1162 140.096 92.9429 139.717 92.748C139.349 92.5531 139.013 92.3257 138.699 92.0441C138.385 91.7626 138.147 91.4377 137.963 91.0587C137.779 90.6797 137.681 90.2141 137.681 89.651C137.681 88.7739 137.984 88.0592 138.612 87.5177C139.23 86.9763 140.107 86.7056 141.233 86.7056C141.709 86.7056 142.153 86.7597 142.565 86.8572C142.976 86.9546 143.323 87.0737 143.615 87.182C143.962 87.3336 144.276 87.4852 144.557 87.6477L143.68 89.3369C143.42 89.207 143.063 89.0554 142.608 88.893C142.153 88.7305 141.699 88.6547 141.233 88.6547C140.767 88.6547 140.399 88.763 140.129 88.9688C139.858 89.1745 139.728 89.4344 139.728 89.7268L139.76 89.7484Z" fill="#F08318"/>
<path d="M152.744 95.9424C153.166 95.9424 153.589 95.845 154.011 95.6609C154.433 95.466 154.877 95.2169 155.364 94.8921L156.783 96.3431C156.068 96.9387 155.397 97.361 154.769 97.5884C154.141 97.8158 153.469 97.9241 152.755 97.9241C151.953 97.9241 151.217 97.7833 150.535 97.491C149.853 97.2094 149.257 96.8196 148.759 96.3323C148.261 95.845 147.86 95.2602 147.579 94.5997C147.297 93.9283 147.156 93.2244 147.156 92.4556C147.156 91.6543 147.297 90.8963 147.579 90.2032C147.86 89.5102 148.25 88.9038 148.759 88.3948C149.268 87.8859 149.853 87.4852 150.535 87.2037C151.217 86.9221 151.953 86.7705 152.755 86.7705C153.448 86.7705 154.13 86.9005 154.791 87.1387C155.451 87.3877 156.112 87.7884 156.783 88.3515L155.364 89.8026C154.91 89.5102 154.466 89.2611 154.033 89.0554C153.599 88.8496 153.166 88.7522 152.744 88.7522C152.267 88.7522 151.802 88.8496 151.358 89.0445C150.914 89.2395 150.524 89.5102 150.188 89.8567C149.853 90.2032 149.593 90.5931 149.398 91.037C149.203 91.481 149.105 91.9575 149.105 92.4556C149.105 92.9104 149.203 93.3435 149.398 93.7659C149.593 94.1882 149.863 94.5564 150.188 94.8704C150.513 95.1844 150.914 95.4552 151.358 95.6501C151.802 95.845 152.267 95.9424 152.744 95.9424Z" fill="#F08318"/>
<path d="M163.746 97.9134C163.01 97.9134 162.306 97.7727 161.635 97.4911C160.963 97.2096 160.378 96.8306 159.88 96.3324C159.382 95.8343 158.982 95.2496 158.678 94.5674C158.375 93.8852 158.234 93.1488 158.234 92.3583C158.234 91.6111 158.386 90.8964 158.678 90.2142C158.971 89.532 159.371 88.9364 159.88 88.4275C160.389 87.9185 160.963 87.507 161.635 87.2038C162.306 86.9006 163.01 86.749 163.746 86.749C164.483 86.749 165.197 86.9006 165.869 87.2038C166.54 87.507 167.136 87.9077 167.634 88.4275C168.132 88.9364 168.532 89.532 168.836 90.2142C169.139 90.8964 169.28 91.6111 169.28 92.3583C169.28 93.1488 169.128 93.8852 168.836 94.5674C168.543 95.2496 168.143 95.8343 167.634 96.3324C167.136 96.8306 166.54 97.2204 165.869 97.4911C165.197 97.7727 164.483 97.9134 163.746 97.9134ZM163.746 88.8065C163.237 88.8065 162.772 88.9039 162.338 89.0989C161.905 89.2938 161.548 89.5645 161.234 89.8894C160.92 90.2142 160.692 90.5932 160.519 91.0155C160.346 91.4379 160.259 91.8818 160.259 92.3583C160.259 92.8564 160.346 93.3221 160.519 93.7552C160.692 94.1884 160.931 94.5565 161.234 94.8706C161.537 95.1846 161.905 95.4337 162.338 95.6069C162.772 95.7802 163.237 95.8668 163.746 95.8668C164.255 95.8668 164.721 95.7802 165.154 95.6069C165.587 95.4337 165.944 95.1846 166.258 94.8706C166.562 94.5565 166.8 94.1884 166.973 93.7552C167.146 93.3221 167.233 92.8564 167.233 92.3583C167.233 91.8927 167.146 91.4487 166.984 91.0155C166.822 90.5932 166.583 90.2142 166.28 89.8894C165.977 89.5645 165.609 89.2938 165.176 89.0989C164.742 88.9039 164.266 88.8065 163.746 88.8065Z" fill="#F08318"/>
<path d="M175.211 97.9345C173.176 97.9345 172.158 96.7326 172.158 94.3286V88.9467H171.129V86.8351H172.158V84.6802H174.291V86.8351H177.085V88.9467H174.291V94.3286C174.291 94.491 174.291 94.6534 174.313 94.8375C174.323 95.0108 174.367 95.1732 174.421 95.3248C174.475 95.4764 174.562 95.5955 174.67 95.6822C174.778 95.7688 174.93 95.8229 175.136 95.8229C175.298 95.8229 175.45 95.7688 175.601 95.6713C175.753 95.5739 175.948 95.3681 176.175 95.0758L177.767 96.1911C177.475 96.6568 177.117 97.0682 176.673 97.4148C176.24 97.7613 175.742 97.9345 175.19 97.9345H175.211Z" fill="#F08318"/>
<path d="M189.076 93.982C189.076 94.361 189.087 94.6967 189.108 94.9783C189.13 95.2598 189.162 95.4764 189.206 95.6063C189.282 95.7254 189.368 95.8337 189.476 95.9204C189.585 96.0178 189.639 96.0611 189.639 96.0395H189.855C189.855 96.1153 189.855 96.2452 189.834 96.4293C189.823 96.6242 189.801 96.8191 189.791 97.0249C189.78 97.2739 189.758 97.5338 189.747 97.8154C189.054 97.8154 188.502 97.6854 188.112 97.4364C187.722 97.1765 187.441 96.7866 187.289 96.2452C187.148 96.4401 186.964 96.6242 186.748 96.83C186.531 97.0249 186.271 97.1981 185.979 97.3606C185.676 97.5122 185.34 97.6421 184.95 97.7287C184.56 97.8262 184.138 97.8695 183.672 97.8695C183.152 97.8695 182.644 97.8154 182.156 97.6963C181.669 97.5771 181.236 97.3931 180.846 97.1332C180.456 96.8733 180.153 96.5484 179.926 96.1478C179.698 95.7471 179.59 95.2598 179.59 94.6859C179.59 93.9279 179.752 93.2781 180.077 92.7475C180.402 92.2169 180.824 91.773 181.333 91.4373C181.842 91.1016 182.416 90.8633 183.055 90.7117C183.694 90.571 184.322 90.4952 184.928 90.4952C185.275 90.4952 185.621 90.506 185.968 90.5276C186.304 90.5493 186.672 90.5926 187.051 90.6684C187.008 90.3327 186.91 90.0404 186.769 89.8021C186.629 89.5639 186.444 89.3581 186.239 89.2065C186.033 89.0549 185.795 88.9358 185.535 88.8708C185.275 88.795 185.004 88.7626 184.733 88.7626C184.235 88.7626 183.716 88.8925 183.152 89.1741C182.589 89.4448 182.059 89.8346 181.55 90.3436L180.965 89.5747L180.813 89.3581C180.813 89.3581 180.792 89.3473 180.792 89.3581C180.792 89.369 180.792 89.3581 180.759 89.3473C180.727 89.3365 180.694 89.2607 180.64 89.1632C180.586 89.0658 180.499 88.8817 180.38 88.6326C181.073 88.0154 181.81 87.5606 182.579 87.2682C183.347 86.9758 184.095 86.8242 184.798 86.8242C185.6 86.8242 186.282 86.9325 186.834 87.1383C187.397 87.3548 187.852 87.6472 188.199 88.0154C188.545 88.3836 188.805 88.8384 188.957 89.369C189.119 89.8996 189.195 90.4735 189.195 91.1016C189.195 91.3398 189.195 91.5672 189.195 91.7838C189.195 92.0004 189.173 92.2278 189.162 92.466C189.152 92.7042 189.13 92.9533 189.119 93.2132C189.108 93.4731 189.097 93.7329 189.097 93.982H189.076ZM183.672 96.007C184.344 96.007 184.896 95.8879 185.34 95.6496C185.784 95.4114 186.13 95.119 186.379 94.7833C186.629 94.4476 186.802 94.1011 186.899 93.7546C186.997 93.4081 187.051 93.1157 187.051 92.8775V92.5743C186.802 92.531 186.52 92.4985 186.195 92.466C185.87 92.4335 185.567 92.4227 185.286 92.4227C184.896 92.4227 184.484 92.4552 184.062 92.5201C183.64 92.5851 183.261 92.7042 182.914 92.8558C182.568 93.0183 182.286 93.2348 182.059 93.5055C181.831 93.7763 181.723 94.1119 181.723 94.5018C181.723 94.6317 181.745 94.7833 181.788 94.9566C181.831 95.1299 181.918 95.2923 182.059 95.4547C182.2 95.6171 182.394 95.7471 182.644 95.8662C182.893 95.9745 183.239 96.0286 183.661 96.0286L183.672 96.007Z" fill="#F08318"/>
<path d="M193.881 89.7484C193.881 89.9109 193.946 90.0625 194.066 90.2141C194.185 90.3657 194.347 90.4956 194.542 90.6364C194.737 90.7772 194.964 90.8963 195.224 91.0154C195.484 91.1345 195.744 91.2645 196.004 91.3944C196.394 91.5677 196.794 91.7626 197.206 91.9683C197.617 92.1741 197.986 92.4123 198.321 92.6939C198.657 92.9754 198.928 93.2894 199.144 93.636C199.361 93.9825 199.469 94.394 199.469 94.8704C199.469 95.78 199.123 96.5164 198.43 97.1011C197.736 97.6751 196.784 97.9674 195.56 97.9674C194.932 97.9674 194.369 97.8916 193.871 97.7509C193.372 97.6101 192.939 97.4368 192.582 97.2527C192.225 97.0687 191.954 96.9062 191.77 96.7438C191.586 96.5922 191.488 96.5056 191.488 96.4947L192.268 94.9787C192.441 95.0653 192.658 95.1628 192.918 95.2711C193.178 95.3794 193.459 95.4877 193.751 95.5851C194.044 95.6826 194.358 95.78 194.661 95.845C194.975 95.9208 195.268 95.9533 195.549 95.9533C196.015 95.9533 196.394 95.8667 196.697 95.6826C197 95.4985 197.141 95.2278 197.141 94.8596C197.141 94.5672 196.978 94.3182 196.643 94.1232C196.307 93.9283 195.906 93.7118 195.441 93.4952C195.43 93.4843 195.408 93.4735 195.397 93.4735C195.365 93.4735 195.354 93.4735 195.354 93.4519L194.964 93.257V93.2786C194.585 93.1162 194.217 92.9429 193.838 92.748C193.47 92.5531 193.134 92.3257 192.82 92.0441C192.506 91.7626 192.268 91.4377 192.084 91.0587C191.9 90.6797 191.802 90.2141 191.802 89.651C191.802 88.7739 192.106 88.0592 192.734 87.5177C193.351 86.9763 194.228 86.7056 195.354 86.7056C195.831 86.7056 196.275 86.7597 196.686 86.8572C197.098 86.9546 197.444 87.0737 197.736 87.182C198.083 87.3336 198.397 87.4852 198.679 87.6477L197.801 89.3369C197.542 89.207 197.184 89.0554 196.729 88.893C196.275 88.7305 195.82 88.6547 195.354 88.6547C194.889 88.6547 194.52 88.763 194.25 88.9688C193.979 89.1745 193.849 89.4344 193.849 89.7268L193.881 89.7484Z" fill="#F08318"/>
<path d="M97.5742 3.19398C101.018 2.17608 104.321 1.53718 107.742 0.995746C111.143 0.475967 114.564 0.161933 118.008 0.0428173C124.873 -0.195415 131.815 0.465138 138.474 2.30602C141.81 3.20481 145.037 4.50425 148.112 6.09608C149.671 6.85409 151.111 7.80702 152.584 8.72746C153.981 9.74536 155.4 10.7308 156.677 11.9003C158.031 12.9723 159.179 14.2718 160.403 15.4846C161.496 16.8057 162.687 18.0618 163.64 19.4912C165.719 22.2309 167.311 25.2738 168.827 28.3275L167.744 27.9701C171.318 26.2592 174.945 24.8406 178.671 23.617C182.396 22.415 186.197 21.4296 190.084 20.8773C193.95 20.3142 197.946 20.2167 201.79 21.0506C203.696 21.4945 205.558 22.2201 207.193 23.2921C208.839 24.3533 210.236 25.7719 211.308 27.3962C210.182 25.8044 208.753 24.4508 207.096 23.4654C205.439 22.4691 203.598 21.8194 201.714 21.4512C197.913 20.7582 194.004 20.9964 190.214 21.6786C186.413 22.3392 182.699 23.4545 179.06 24.754C175.444 26.0751 171.87 27.6236 168.481 29.3887L167.788 29.746L167.398 29.0205C165.828 26.1076 164.193 23.2163 162.103 20.6607C161.139 19.318 159.969 18.1593 158.886 16.9356C157.684 15.8203 156.547 14.6291 155.226 13.6545C153.981 12.5933 152.606 11.7054 151.252 10.7849C149.834 9.97276 148.448 9.11729 146.953 8.44591C144.008 7.04901 140.922 5.92282 137.738 5.17564C131.382 3.64878 124.754 3.22646 118.203 3.6921C114.922 3.9195 111.652 4.33099 108.425 4.9374C105.219 5.54381 101.938 6.32348 98.9603 7.30889L97.5959 3.19398H97.5742Z" fill="#0199A3"/>
<path d="M215.684 32.3463C218.224 29.8034 218.229 25.6896 215.694 23.1578C213.16 20.626 209.046 20.635 206.506 23.1779C203.966 25.7208 203.961 29.8346 206.495 32.3664C209.03 34.8982 213.143 34.8892 215.684 32.3463Z" fill="#F8AD34"/>
<path d="M56.3154 56.7096C56.3154 57.6733 56.0339 58.1498 55.4816 58.1498C55.1243 58.1498 54.572 58.1173 53.8356 58.0415C53.0993 57.9657 52.5362 57.9332 52.1464 57.9332C51.7349 57.9332 51.1176 57.9549 50.2947 58.009C49.4717 58.0523 48.8544 58.0848 48.4429 58.0848C47.934 58.0848 47.6849 57.5109 47.6849 56.3522C47.6849 55.1935 47.7282 53.5259 47.8149 51.2844C47.9015 49.032 47.9448 47.3427 47.9448 46.2057C47.9448 39.9792 47.9232 36.514 47.869 35.7993C47.6741 33.2654 47.1651 31.5219 46.3422 30.5582C45.4001 29.5294 43.7216 29.0097 41.296 29.0097C39.7691 29.0097 38.0582 29.746 36.1415 31.2187C34.1598 32.7672 33.1311 34.2941 33.0553 35.7885C32.9579 37.7051 32.9145 41.2136 32.9145 46.3031C32.9145 47.5051 32.9579 49.3135 33.0553 51.7283C33.1528 54.1432 33.1961 55.9515 33.1961 57.1535C33.1961 57.8141 32.9795 58.1498 32.5464 58.1498C32.1132 58.1498 31.4743 58.1173 30.6405 58.0415C29.8067 57.9657 29.1678 57.9332 28.7347 57.9332C28.3448 57.9332 27.7817 57.9549 27.0345 58.009C26.2874 58.0523 25.7134 58.0848 25.3344 58.0848C24.8471 58.0848 24.6089 57.7275 24.6089 57.0128C24.6089 55.8324 24.6414 54.0565 24.7172 51.6742C24.793 49.3027 24.8255 47.5268 24.8255 46.3465V37.4561C24.8255 34.6731 24.5006 32.7023 23.8509 31.5111C22.9305 29.8327 21.1762 28.9988 18.5881 28.9988C17.0613 28.9988 15.2529 29.6486 13.1521 30.9588C10.8348 32.3882 9.66526 33.8285 9.66526 35.2795V46.0541C9.66526 47.2886 9.67609 49.1186 9.69775 51.5551C9.7194 53.9915 9.73023 55.8108 9.73023 57.0128C9.73023 57.7275 9.44869 58.0848 8.89642 58.0848H2.17178C1.68449 58.0848 1.44625 57.7491 1.44625 57.0886C1.44625 55.0961 1.45708 52.0965 1.47874 48.1007C1.5004 44.1049 1.51123 41.1054 1.51123 39.1129C1.51123 34.6081 1.03476 30.125 0.0926623 25.6419C0.0168612 25.3279 -0.015625 25.068 -0.015625 24.8623C-0.015625 24.5374 0.0926623 24.3641 0.309237 24.31C1.20802 24.2125 2.50747 24.0285 4.22924 23.7577C5.03056 23.5087 6.22172 23.238 7.81355 22.9456L8.10592 22.9131C8.3983 22.9131 8.66902 23.7794 8.91808 25.512C9.16714 27.2446 9.39454 28.1109 9.58946 28.1109L11.4087 26.4866C12.8381 25.2304 14.2566 24.2342 15.686 23.4978C17.7435 22.415 19.801 21.8735 21.8584 21.8735C27.4244 21.8735 30.9654 24.1909 32.4814 28.8148C33.9866 26.8439 35.8383 25.2196 38.069 23.9418C40.4405 22.5666 42.7795 21.8735 45.1077 21.8735C49.58 21.8735 52.677 23.2055 54.3879 25.8585C55.6224 27.8293 56.2396 30.9372 56.2396 35.1929C56.2396 36.005 56.218 37.2612 56.1638 38.9613C56.1097 40.6614 56.088 41.9175 56.088 42.7297C56.088 44.2782 56.1205 46.6064 56.1963 49.725C56.2721 52.8329 56.3046 55.1719 56.3046 56.7204L56.3154 56.7096Z" fill="#F08318"/>
<path d="M96.6536 36.633C96.6536 38.4305 96.5778 41.1377 96.437 44.7654C96.2962 48.393 96.2204 51.1218 96.2204 52.941C96.2204 54.7603 96.2746 57.4241 96.3829 61.0084C96.4911 64.5819 96.5453 67.2783 96.5453 69.065C96.5453 69.5523 96.3179 69.8772 95.8631 70.0288C95.6681 70.0721 93.2317 70.1046 88.532 70.1046C88.2396 70.1046 88.0664 69.1841 88.0122 67.3324C87.9473 65.4915 87.8173 64.5603 87.6007 64.5603C87.4816 64.5603 87.2975 64.6686 87.0593 64.896C83.0419 68.4586 79.0677 70.2454 75.1477 70.2454C69.8308 70.2454 66.3223 68.2745 64.6114 64.3437C63.5501 61.9072 63.0195 57.5324 63.0195 51.2084C63.0195 45.5017 63.4635 40.6721 64.3515 36.7088C64.568 35.745 64.9687 35.2686 65.5426 35.2686C66.2357 35.2686 67.2861 35.2794 68.683 35.301C70.0799 35.3227 71.1194 35.3335 71.8233 35.3335C72.2998 35.3335 72.5488 35.6042 72.5488 36.1457C72.5488 37.0986 72.3972 38.7013 72.0832 40.9428C71.7475 43.3251 71.5634 45.0144 71.5417 45.9998C71.4659 47.4725 71.4335 49.0968 71.4335 50.8728C71.4335 55.1826 71.7367 58.0739 72.3322 59.5466C73.361 62.1996 75.6675 63.5315 79.2301 63.5315C80.7462 63.5315 82.5437 62.7627 84.612 61.2467C86.7994 59.644 87.9364 58.1063 88.0014 56.6336C88.1205 54.7928 88.1855 48.2955 88.1855 37.1528C88.1855 35.9508 88.6728 35.3444 89.669 35.3444H95.6248C96.3179 35.3444 96.6752 35.7775 96.6752 36.633H96.6536Z" fill="#F08318"/>
<path d="M159.189 56.7096C159.189 57.6733 158.907 58.1498 158.355 58.1498C157.997 58.1498 157.445 58.1173 156.709 58.0415C155.973 57.9657 155.409 57.9332 155.02 57.9332C154.608 57.9332 153.991 57.9549 153.168 58.009C152.345 58.0523 151.728 58.0848 151.316 58.0848C150.807 58.0848 150.558 57.5109 150.558 56.3522C150.558 55.1935 150.601 53.5259 150.688 51.2844C150.775 49.032 150.818 47.3427 150.818 46.2057C150.818 39.9792 150.796 36.514 150.742 35.7993C150.547 33.2654 150.038 31.5219 149.215 30.5582C148.273 29.5294 146.595 29.0097 144.169 29.0097C142.642 29.0097 140.931 29.746 139.015 31.2187C137.033 32.7672 136.004 34.2941 135.929 35.7885C135.831 37.7051 135.788 41.2136 135.788 46.3031C135.788 47.5051 135.831 49.3135 135.929 51.7283C136.026 54.1432 136.069 55.9515 136.069 57.1535C136.069 57.8141 135.853 58.1498 135.42 58.1498C134.986 58.1498 134.348 58.1173 133.514 58.0415C132.68 57.9657 132.041 57.9332 131.608 57.9332C131.218 57.9332 130.655 57.9549 129.908 58.009C129.161 58.0523 128.587 58.0848 128.208 58.0848C127.72 58.0848 127.482 57.7275 127.482 57.0128C127.482 55.8324 127.515 54.0565 127.59 51.6742C127.666 49.3027 127.699 47.5268 127.699 46.3465V37.4561C127.699 34.6731 127.374 32.7023 126.724 31.5111C125.804 29.8327 124.049 28.9988 121.461 28.9988C119.934 28.9988 118.126 29.6486 116.025 30.9588C113.708 32.3882 112.538 33.8285 112.538 35.2795V46.0541C112.538 47.2886 112.549 49.1186 112.571 51.5551C112.593 53.9915 112.603 55.8108 112.603 57.0128C112.603 57.7275 112.322 58.0848 111.77 58.0848H105.023C104.536 58.0848 104.298 57.7491 104.298 57.0886C104.298 55.0961 104.309 52.0965 104.33 48.1007C104.352 44.1049 104.363 41.1054 104.363 39.1129C104.363 34.6081 103.886 30.125 102.944 25.6419C102.868 25.3279 102.836 25.068 102.836 24.8623C102.836 24.5374 102.944 24.3641 103.161 24.31C104.06 24.2125 105.359 24.0285 107.081 23.7577C107.882 23.5087 109.073 23.238 110.665 22.9456L110.957 22.9131C111.25 22.9131 111.521 23.7794 111.77 25.512C112.019 27.2446 112.246 28.1109 112.441 28.1109L114.26 26.4866C115.69 25.2304 117.108 24.2342 118.538 23.4978C120.595 22.415 122.653 21.8735 124.71 21.8735C130.276 21.8735 133.817 24.1909 135.333 28.8148C136.838 26.8439 138.69 25.2196 140.921 23.9418C143.292 22.5666 145.631 21.8735 147.959 21.8735C152.432 21.8735 155.529 23.2055 157.239 25.8585C158.474 27.8293 159.091 30.9372 159.091 35.1929C159.091 36.005 159.07 37.2612 159.015 38.9613C158.961 40.6614 158.94 41.9175 158.94 42.7297C158.94 44.2782 158.972 46.6064 159.048 49.725C159.124 52.8329 159.156 55.1719 159.156 56.7204L159.189 56.7096Z" fill="#F08318"/>
<path d="M201.096 35.8209C201.096 35.9183 201.064 36.1457 200.988 36.4814C200.046 42.1124 199.58 46.9745 199.58 51.0569C199.58 51.306 199.884 56.8286 200.479 67.6249L200.512 68.1446C200.533 68.8593 200.219 69.2167 199.559 69.2167C198.898 69.2167 197.902 69.2925 196.559 69.4549C195.216 69.6173 194.231 69.6931 193.581 69.6931C193.126 69.6931 192.769 68.8377 192.531 67.1159C192.293 65.3941 192.065 64.5387 191.849 64.5387C191.708 64.5387 191.058 65.0151 189.899 65.9789C188.481 67.1592 187.16 68.058 185.925 68.6752C184.03 69.6607 182.124 70.148 180.219 70.148C175.551 70.148 171.621 68.2421 168.415 64.4304C165.383 60.7919 163.867 56.5471 163.867 51.6958C163.867 46.2381 165.394 41.7225 168.448 38.1491C171.642 34.4348 175.855 32.5723 181.085 32.5723C184.767 32.5723 187.983 33.8717 190.722 36.4814C191.134 36.9687 191.773 37.6834 192.639 38.6255C192.715 38.7013 192.78 38.7338 192.856 38.7338C192.996 38.7338 193.202 37.9541 193.473 36.4056C193.744 34.8571 194.079 34.0775 194.48 34.0775C195.13 34.0775 196.343 34.2615 198.129 34.6297C200.1 35.0737 201.086 35.4635 201.086 35.8101L201.096 35.8209ZM191.892 51.241C191.892 48.2198 191.015 45.6209 189.261 43.4551C187.409 41.1161 185.037 39.9466 182.146 39.9466C179.255 39.9466 176.851 41.1053 174.923 43.4118C173.072 45.6209 172.14 48.2306 172.14 51.2302C172.14 54.2297 173.072 56.7961 174.923 58.9835C176.851 61.2684 179.255 62.4162 182.146 62.4162C185.037 62.4162 187.322 61.2467 189.217 58.9077C190.993 56.7203 191.892 54.1539 191.892 51.2302V51.241Z" fill="#F08318"/>
</g>
<defs>
<clipPath id="clip0_48_19533">
<rect width="217.592" height="98" fill="white"/>
</clipPath>
</defs>
</svg>
