<svg width="20" height="20" viewBox="0 0 20 20" fill="none" xmlns="http://www.w3.org/2000/svg">
<g clip-path="url(#clip0_195_3445)">
<path d="M14.1672 1.66663H5.8339C3.53272 1.66663 1.66724 3.53211 1.66724 5.83329V14.1666C1.66724 16.4678 3.53272 18.3333 5.8339 18.3333H14.1672C16.4684 18.3333 18.3339 16.4678 18.3339 14.1666V5.83329C18.3339 3.53211 16.4684 1.66663 14.1672 1.66663Z" stroke="white" stroke-width="1.63403" stroke-linecap="round" stroke-linejoin="round"/>
<path d="M13.3335 9.47489C13.4363 10.1684 13.3179 10.8767 12.995 11.4991C12.672 12.1214 12.1611 12.6261 11.5349 12.9413C10.9086 13.2565 10.1989 13.3662 9.50665 13.2548C8.81443 13.1434 8.17496 12.8166 7.6792 12.3209C7.18343 11.8251 6.85661 11.1856 6.74522 10.4934C6.63383 9.80118 6.74355 9.09146 7.05877 8.4652C7.37399 7.83893 7.87865 7.328 8.50098 7.00509C9.12332 6.68217 9.83162 6.56371 10.5252 6.66655C11.2326 6.77146 11.8875 7.1011 12.3932 7.60681C12.8989 8.11251 13.2286 8.76745 13.3335 9.47489Z" stroke="white" stroke-width="1.63403" stroke-linecap="round" stroke-linejoin="round"/>
<path d="M14.5837 5.41663H14.5923" stroke="white" stroke-width="1.63403" stroke-linecap="round" stroke-linejoin="round"/>
</g>
<defs>
<clipPath id="clip0_195_3445">
<rect width="20" height="20" fill="white"/>
</clipPath>
</defs>
</svg>
