<svg width="19" height="19" viewBox="0 0 19 19" fill="none" xmlns="http://www.w3.org/2000/svg">
<g clip-path="url(#clip0_44_17238)">
<path d="M17.2732 13.3267V15.66C17.2741 15.8766 17.2297 16.091 17.143 16.2895C17.0562 16.488 16.9289 16.6661 16.7693 16.8126C16.6097 16.959 16.4212 17.0705 16.216 17.1399C16.0108 17.2093 15.7934 17.2351 15.5777 17.2156C13.1843 16.9555 10.8853 16.1377 8.86545 14.8278C6.9862 13.6337 5.39293 12.0404 4.19878 10.1611C2.88432 8.13207 2.0663 5.82191 1.811 3.4178C1.79156 3.20272 1.81713 2.98595 1.88606 2.78128C1.95499 2.57662 2.06578 2.38856 2.21137 2.22906C2.35697 2.06956 2.53418 1.94213 2.73173 1.85487C2.92927 1.76761 3.14282 1.72245 3.35878 1.72224H5.69211C6.06957 1.71853 6.43551 1.85219 6.7217 2.09832C7.0079 2.34446 7.19484 2.68626 7.24767 3.06002C7.34615 3.80674 7.5288 4.53992 7.79211 5.24558C7.89676 5.52396 7.91941 5.82651 7.85737 6.11737C7.79534 6.40823 7.65123 6.67522 7.44211 6.88669L6.45433 7.87447C7.56154 9.82167 9.1738 11.4339 11.121 12.5411L12.1088 11.5534C12.3202 11.3442 12.5872 11.2001 12.8781 11.1381C13.169 11.0761 13.4715 11.0987 13.7499 11.2034C14.4555 11.4667 15.1887 11.6493 15.9354 11.7478C16.3133 11.8011 16.6583 11.9914 16.905 12.2825C17.1516 12.5736 17.2827 12.9452 17.2732 13.3267Z" stroke="white" stroke-width="2" stroke-linecap="round" stroke-linejoin="round"/>
</g>
<defs>
<clipPath id="clip0_44_17238">
<rect width="18.6667" height="18.6667" fill="white" transform="translate(0.164062 0.166504)"/>
</clipPath>
</defs>
</svg>
